<svg width="24" height="25" viewBox="0 0 24 25" fill="none" xmlns="http://www.w3.org/2000/svg">
<path d="M5.0573 19.9729C1.16702 16.0827 1.16702 9.69861 5.0573 5.80833" stroke="white" stroke-width="2.5" stroke-linecap="round" stroke-linejoin="round"/>
<path d="M7.95004 17.0802C5.65577 14.7859 5.65577 10.9954 7.95004 8.60135" stroke="white" stroke-width="2.5" stroke-linecap="round" stroke-linejoin="round"/>
<path d="M12.1396 14.8857C13.2414 14.8857 14.1346 13.9925 14.1346 12.8906C14.1346 11.7888 13.2414 10.8956 12.1396 10.8956C11.0378 10.8956 10.1446 11.7888 10.1446 12.8906C10.1446 13.9925 11.0378 14.8857 12.1396 14.8857Z" stroke="white" stroke-width="2.5" stroke-linecap="round" stroke-linejoin="round"/>
<path d="M16.3291 8.7011C18.6234 10.9954 18.6234 14.7859 16.3291 17.1799" stroke="white" stroke-width="2.5" stroke-linecap="round" stroke-linejoin="round"/>
<path d="M19.2219 5.80833C23.1121 9.69861 23.1121 15.9829 19.2219 19.8732" stroke="white" stroke-width="2.5" stroke-linecap="round" stroke-linejoin="round"/>
</svg>
