<svg width="24" height="25" viewBox="0 0 24 25" fill="none" xmlns="http://www.w3.org/2000/svg">
<path d="M14.0813 6.57243C13.9077 6.74947 13.8105 6.9875 13.8105 7.23541C13.8105 7.48333 13.9077 7.72136 14.0813 7.8984L15.5966 9.41379C15.7737 9.58733 16.0117 9.68453 16.2596 9.68453C16.5075 9.68453 16.7456 9.58733 16.9226 9.41379L20.4933 5.84315C20.9695 6.89558 21.1137 8.06816 20.9066 9.20462C20.6996 10.3411 20.1511 11.3874 19.3343 12.2043C18.5174 13.0211 17.4711 13.5696 16.3346 13.7767C15.1981 13.9837 14.0256 13.8395 12.9731 13.3633L6.42852 19.9079C6.05173 20.2847 5.54069 20.4964 5.00783 20.4964C4.47498 20.4964 3.96394 20.2847 3.58715 19.9079C3.21037 19.5311 2.99869 19.0201 2.99869 18.4872C2.99869 17.9544 3.21037 17.4433 3.58715 17.0665L10.1318 10.5219C9.65551 9.46949 9.51132 8.29692 9.71838 7.16045C9.92545 6.02399 10.4739 4.97763 11.2908 4.1608C12.1076 3.34397 13.154 2.79547 14.2904 2.58841C15.4269 2.38134 16.5995 2.52554 17.6519 3.00178L14.0907 6.56296L14.0813 6.57243Z" stroke="white" stroke-width="2.5" stroke-linecap="round" stroke-linejoin="round"/>
</svg>
