<svg width="40" height="40" viewBox="0 0 40 40" fill="none" xmlns="http://www.w3.org/2000/svg">
<path d="M26 33V30.1111C26 28.5787 25.3679 27.1091 24.2427 26.0256C23.1174 24.9421 21.5913 24.3333 20 24.3333H11C9.4087 24.3333 7.88258 24.9421 6.75736 26.0256C5.63214 27.1091 5 28.5787 5 30.1111V33" stroke="white" stroke-width="3" stroke-linecap="round" stroke-linejoin="round"/>
<path d="M15.5001 18.5556C18.8138 18.5556 21.5001 15.9688 21.5001 12.7778C21.5001 9.5868 18.8138 7 15.5001 7C12.1864 7 9.50006 9.5868 9.50006 12.7778C9.50006 15.9688 12.1864 18.5556 15.5001 18.5556Z" stroke="white" stroke-width="3" stroke-linecap="round" stroke-linejoin="round"/>
<path d="M35 33V30.1111C34.999 28.8309 34.5565 27.5873 33.7421 26.5756C32.9276 25.5638 31.7872 24.8412 30.5 24.5211" stroke="white" stroke-width="3" stroke-linecap="round" stroke-linejoin="round"/>
<path d="M26.0001 7.18777C27.2907 7.50599 28.4346 8.22879 29.2515 9.24222C30.0684 10.2557 30.5118 11.5021 30.5118 12.785C30.5118 14.0679 30.0684 15.3143 29.2515 16.3278C28.4346 17.3412 27.2907 18.064 26.0001 18.3822" stroke="white" stroke-width="3" stroke-linecap="round" stroke-linejoin="round"/>
</svg>
