<svg width="40" height="40" viewBox="0 0 40 40" fill="none" xmlns="http://www.w3.org/2000/svg">
<path d="M15.996 10.9657C14.1556 9.48891 12.1305 8.25568 9.9745 7.29914C9.02329 6.87543 7.94432 6.90377 7.01888 7.37184C6.04174 7.86354 5.37995 8.78851 5.24724 9.84462V9.84786L5.21971 10.0676C4.92676 12.3917 4.92676 14.7508 5.21971 17.0734L5.24724 17.2979C5.37995 18.354 6.04174 19.279 7.01888 19.7707C7.50825 20.0173 8.03909 20.1423 8.57169 20.1423C9.0473 20.1423 9.52643 20.0427 9.97626 19.8434C12.1305 18.8869 14.1556 17.6536 15.9944 16.1784L16.1444 16.0582C16.9112 15.4433 17.3524 14.5358 17.3524 13.5714C17.3524 12.6069 16.9112 11.6994 16.1427 11.0827L15.996 10.9657ZM7 10.0313L8.76476 10.1752C8.75611 10.1879 8.73882 10.2005 8.71482 10.2115L7 10.0313ZM13.6729 13.7389C12.1545 14.9565 10.4949 15.9841 8.73705 16.7936L8.72505 16.705C8.46316 14.6258 8.46316 12.5167 8.72505 10.4359L8.73705 10.349C10.4949 11.1601 12.1545 12.1863 13.6747 13.4052L13.8229 13.6188L13.6729 13.7389ZM33.2352 13.5714C34.2106 13.5714 35 12.8472 35 11.9523C35 11.0575 34.2106 10.3332 33.2352 10.3332H20.8819C19.9066 10.3332 19.1172 11.0575 19.1172 11.9523C19.1172 12.8472 19.9066 13.5714 20.8819 13.5714H33.2352ZM17.3524 18.4285C17.3524 19.3234 18.1418 20.0476 19.1172 20.0476H33.2352C34.2106 20.0476 35 19.3234 35 18.4285C35 17.5337 34.2106 16.8095 33.2352 16.8095H19.1172C18.1418 16.8095 17.3524 17.5337 17.3524 18.4285ZM33.2352 29.7619H8.52863C7.55325 29.7619 6.76388 30.4861 6.76388 31.3809C6.76388 32.2758 7.55325 33 8.52863 33H33.2352C34.2106 33 35 32.2758 35 31.3809C35 30.4861 34.2106 29.7619 33.2352 29.7619ZM33.2352 23.2857H8.52863C7.55325 23.2857 6.76388 24.0099 6.76388 24.9047C6.76388 25.7996 7.55325 26.5238 8.52863 26.5238H33.2352C34.2106 26.5238 35 25.7996 35 24.9047C35 24.0099 34.2106 23.2857 33.2352 23.2857Z" fill="white"/>
</svg>
