<svg width="30" height="30" viewBox="0 0 30 30" fill="none" xmlns="http://www.w3.org/2000/svg">
<path d="M11.25 17.325C12.9973 17.325 14.4655 18.5679 14.8818 20.25L25.3125 20.25C25.8303 20.25 26.25 20.6865 26.25 21.225C26.25 21.7036 25.9184 22.1017 25.481 22.1843L25.3125 22.2L14.8814 22.202C14.4644 23.8831 12.9967 25.125 11.25 25.125C9.50334 25.125 8.03559 23.8831 7.61863 22.202L4.6875 22.2C4.16973 22.2 3.75 21.7635 3.75 21.225C3.75 20.7464 4.08164 20.3483 4.51898 20.2657L4.6875 20.25L7.61815 20.25C8.03445 18.5679 9.50266 17.325 11.25 17.325ZM11.25 19.275C10.2145 19.275 9.375 20.148 9.375 21.225C9.375 22.302 10.2145 23.175 11.25 23.175C12.2855 23.175 13.125 22.302 13.125 21.225C13.125 20.148 12.2855 19.275 11.25 19.275ZM18.75 5.625C20.4973 5.625 21.9655 6.86789 22.3818 8.54996L25.3125 8.55C25.8303 8.55 26.25 8.98652 26.25 9.525C26.25 10.0036 25.9184 10.4017 25.481 10.4843L25.3125 10.5L22.3814 10.502C21.9644 12.1831 20.4967 13.425 18.75 13.425C17.0033 13.425 15.5356 12.1831 15.1186 10.502L4.6875 10.5C4.16973 10.5 3.75 10.0635 3.75 9.525C3.75 9.04635 4.08164 8.64826 4.51898 8.56571L4.6875 8.55L15.1182 8.54996C15.5345 6.86789 17.0027 5.625 18.75 5.625ZM18.75 7.575C17.7145 7.575 16.875 8.44804 16.875 9.525C16.875 10.602 17.7145 11.475 18.75 11.475C19.7855 11.475 20.625 10.602 20.625 9.525C20.625 8.44804 19.7855 7.575 18.75 7.575Z" fill="white" />
</svg>
