<svg width="40" height="40" viewBox="0 0 40 40" fill="none" xmlns="http://www.w3.org/2000/svg">
<path d="M32 33C32.7956 33 33.5587 32.6777 34.1213 32.1041C34.6839 31.5305 35 30.7524 35 29.9412V14.6471C35 13.8358 34.6839 13.0578 34.1213 12.4841C33.5587 11.9105 32.7956 11.5882 32 11.5882H20.15C19.6483 11.5933 19.1533 11.4699 18.7105 11.2294C18.2676 10.9889 17.8909 10.639 17.615 10.2118L16.4 8.37647C16.1268 7.95354 15.755 7.60638 15.3177 7.36614C14.8805 7.12589 14.3917 7.00008 13.895 7H8C7.20435 7 6.44129 7.32227 5.87868 7.89591C5.31607 8.46955 5 9.24757 5 10.0588V29.9412C5 30.7524 5.31607 31.5305 5.87868 32.1041C6.44129 32.6777 7.20435 33 8 33H32Z" stroke="white" stroke-width="3" stroke-linecap="round" stroke-linejoin="round"/>
<path d="M5 17.7059H35" stroke="white" stroke-width="3" stroke-linecap="round" stroke-linejoin="round"/>
</svg>
