<svg width="40" height="40" viewBox="0 0 40 40" fill="none" xmlns="http://www.w3.org/2000/svg">
<path d="M29.6388 11.64L28.3588 10.36C28.2463 10.2463 28.1124 10.1561 27.9648 10.0945C27.8171 10.0329 27.6588 10.0012 27.4988 10.0012C27.3389 10.0012 27.1805 10.0329 27.0329 10.0945C26.8853 10.1561 26.7513 10.2463 26.6388 10.36L10.3588 26.64C10.2451 26.7525 10.1549 26.8865 10.0933 27.0341C10.0317 27.1817 10 27.3401 10 27.5C10 27.66 10.0317 27.8183 10.0933 27.9659C10.1549 28.1136 10.2451 28.2475 10.3588 28.36L11.6388 29.64C11.7506 29.7549 11.8844 29.8463 12.0321 29.9086C12.1798 29.971 12.3385 30.0031 12.4988 30.0031C12.6592 30.0031 12.8179 29.971 12.9656 29.9086C13.1133 29.8463 13.247 29.7549 13.3588 29.64L29.6388 13.36C29.7537 13.2482 29.8451 13.1145 29.9074 12.9668C29.9698 12.8191 30.0019 12.6604 30.0019 12.5C30.0019 12.3397 29.9698 12.181 29.9074 12.0333C29.8451 11.8855 29.7537 11.7518 29.6388 11.64Z" stroke="white" stroke-width="3" stroke-linecap="round" stroke-linejoin="round"/>
<path d="M21.9988 15L24.9988 18" stroke="white" stroke-width="3" stroke-linecap="round" stroke-linejoin="round"/>
<path d="M12.9988 14V18" stroke="white" stroke-width="3" stroke-linecap="round" stroke-linejoin="round"/>
<path d="M26.9988 22V26" stroke="white" stroke-width="3" stroke-linecap="round" stroke-linejoin="round"/>
<path d="M17.9988 10V12" stroke="white" stroke-width="3" stroke-linecap="round" stroke-linejoin="round"/>
<path d="M14.9988 16H10.9988" stroke="white" stroke-width="3" stroke-linecap="round" stroke-linejoin="round"/>
<path d="M28.9988 24H24.9988" stroke="white" stroke-width="3" stroke-linecap="round" stroke-linejoin="round"/>
<path d="M18.9988 11H16.9988" stroke="white" stroke-width="3" stroke-linecap="round" stroke-linejoin="round"/>
</svg>
