<svg width="40" height="40" viewBox="0 0 40 40" fill="none" xmlns="http://www.w3.org/2000/svg">
<path d="M17.4222 7H8.48889C7.6666 7 7 7.6467 7 8.44444V31.5556C7 32.3533 7.6666 33 8.48889 33H17.4222C18.2445 33 18.9111 32.3533 18.9111 31.5556V8.44444C18.9111 7.6467 18.2445 7 17.4222 7Z" stroke="white" stroke-width="3" stroke-linecap="round" stroke-linejoin="round"/>
<path d="M12.9555 7V33" stroke="white" stroke-width="3" stroke-linecap="round" stroke-linejoin="round"/>
<path d="M32.9067 29.9667C33.2045 30.6889 32.7578 31.5556 32.0134 31.8444L29.1845 32.8556C28.4401 33.1444 27.5467 32.7111 27.249 31.9889L19.0601 10.0333C18.7623 9.31111 19.209 8.44444 19.9534 8.15556L22.7823 7.14444C23.5267 6.85556 24.4201 7.28889 24.7178 8.01111L32.9067 29.9667Z" stroke="white" stroke-width="3" stroke-linecap="round" stroke-linejoin="round"/>
</svg>
