<svg width="40" height="40" viewBox="0 0 40 40" fill="none" xmlns="http://www.w3.org/2000/svg">
<path d="M33 10.9813C33 9.68125 31.9438 8.625 30.6438 8.625H9.35625C8.05625 8.625 7 9.68125 7 10.9813V29.0188C7 30.3188 8.05625 31.375 9.35625 31.375H18.3864V28.9375H9.4375V11.0625H30.5625V18.375H33V10.9813Z" fill="white" />
<path d="M31.7812 21.6364C32.1045 21.6364 32.4145 21.7648 32.643 21.9933C32.8716 22.2219 33 22.5319 33 22.8551V30.1562C33 30.4795 32.8716 30.7895 32.643 31.018C32.4145 31.2466 32.1045 31.375 31.7812 31.375H22.1531C21.8299 31.375 21.5199 31.2466 21.2913 31.018C21.0628 30.7895 20.9344 30.4795 20.9344 30.1562V22.8551C20.9344 22.5319 21.0628 22.2219 21.2913 21.9933C21.5199 21.7648 21.8299 21.6364 22.1531 21.6364H31.7812Z" fill="white" />
</svg>
