<svg width="50" height="50" viewBox="0 0 50 50" fill="none" xmlns="http://www.w3.org/2000/svg">
<path d="M33.773 38H32.0809C30.9603 37.9987 29.886 37.5769 29.0936 36.8272C28.3012 36.0775 27.8554 35.061 27.854 34.0007V15.9999C27.8552 14.9396 28.301 13.9229 29.0934 13.1731C29.8858 12.4232 30.9602 12.0013 32.0809 12H33.773C34.8938 12.0013 35.9682 12.4232 36.7606 13.1731C37.553 13.9229 37.9988 14.9396 38 15.9999V34.0007C37.9986 35.061 37.5528 36.0775 36.7604 36.8272C35.968 37.5769 34.8937 37.9987 33.773 38ZM32.0809 14.9998C31.8007 15.0001 31.5321 15.1056 31.3341 15.2931C31.136 15.4806 31.0247 15.7348 31.0245 15.9999V34.0007C31.0247 34.2658 31.1361 34.5199 31.3341 34.7073C31.5322 34.8947 31.8008 35.0001 32.0809 35.0002H33.773C34.0532 35.0001 34.3218 34.8947 34.5198 34.7073C34.7179 34.5199 34.8293 34.2658 34.8294 34.0007V15.9999C34.8293 15.7348 34.718 15.4806 34.5199 15.2931C34.3218 15.1056 34.0532 15.0001 33.773 14.9998H32.0809ZM17.9184 38H16.2276C15.1069 37.9988 14.0324 37.5771 13.2399 36.8274C12.4473 36.0776 12.0014 35.0611 12 34.0007V15.9999C12.0013 14.9395 12.4471 13.9228 13.2397 13.1729C14.0322 12.423 15.1068 12.0012 16.2276 12H17.9185C19.0393 12.0012 20.1138 12.423 20.9064 13.1729C21.6989 13.9228 22.1447 14.9395 22.146 15.9999V34.0007C22.1446 35.0611 21.6987 36.0777 20.9061 36.8274C20.1136 37.5771 19.0391 37.9988 17.9184 38ZM16.2276 14.9998C15.9473 15.0001 15.6786 15.1056 15.4804 15.2931C15.2823 15.4806 15.1708 15.7348 15.1705 15.9999V34.0007C15.1708 34.2658 15.2823 34.52 15.4805 34.7074C15.6787 34.8948 15.9474 35.0001 16.2276 35.0002H17.9184C18.1986 35.0001 18.4673 34.8948 18.6655 34.7074C18.8637 34.52 18.9751 34.2658 18.9755 34.0007V15.9999C18.9752 15.7348 18.8637 15.4806 18.6655 15.2931C18.4674 15.1056 18.1987 15.0001 17.9184 14.9998H16.2276Z" fill="white" stroke="white"/>
</svg>
