<svg width="30" height="30" viewBox="0 0 30 30" fill="none" xmlns="http://www.w3.org/2000/svg">
<path fill-rule="evenodd" clip-rule="evenodd" d="M14.25 16.5499C14.25 17.2387 13.7463 17.797 13.125 17.797H1.125C0.503685 17.797 0 17.2387 0 16.5499C0 15.8612 0.503685 15.3028 1.125 15.3028H13.125C13.7463 15.3028 14.25 15.8612 14.25 16.5499ZM14.25 23.2013C14.25 23.8901 13.7463 24.4484 13.125 24.4484H1.125C0.503685 24.4484 0 23.8901 0 23.2013C0 22.5126 0.503685 21.9542 1.125 21.9542H13.125C13.7463 21.9542 14.25 22.5126 14.25 23.2013ZM25.4329 15.6239L25.5671 15.7097C26.7504 16.4669 27.7311 17.0947 28.4305 17.6823C29.1432 18.2809 29.7825 19.0123 29.9487 20.0574C30.0171 20.4872 30.0171 20.9269 29.9487 21.3567C29.7825 22.402 29.1432 23.1331 28.4305 23.7318C27.7311 24.3194 26.7504 24.9471 25.5671 25.7044L25.4329 25.7902C24.2497 26.5476 23.2689 27.1753 22.4602 27.553C21.6361 27.9379 20.7453 28.186 19.8458 27.823C19.4757 27.6737 19.1322 27.4539 18.8306 27.1733C18.0972 26.4911 17.8456 25.5117 17.7342 24.5283C17.625 23.563 17.625 22.3075 17.625 20.7928V20.6212C17.625 19.1065 17.625 17.8511 17.7342 16.8858C17.8456 15.9024 18.0972 14.923 18.8306 14.2407C19.1322 13.9602 19.4757 13.7404 19.8458 13.591C20.7453 13.228 21.6361 13.4761 22.4602 13.8611C23.2689 14.2387 24.2497 14.8664 25.4329 15.6239ZM21.5867 16.1596C20.9238 15.85 20.7015 15.9001 20.6152 15.935C20.4919 15.9847 20.3773 16.058 20.2769 16.1515C20.2065 16.217 20.0564 16.4052 19.9667 17.1964C19.8771 17.9876 19.875 19.0846 19.875 20.707C19.875 22.3295 19.8771 23.4265 19.9667 24.2176C20.0564 25.0088 20.2065 25.1971 20.2769 25.2626C20.3773 25.356 20.4919 25.4294 20.6152 25.4791C20.7015 25.514 20.9238 25.564 21.5867 25.2544C22.2495 24.9448 23.1075 24.3984 24.375 23.5872C25.6425 22.7759 26.4984 22.2254 27.0717 21.7438C27.645 21.2623 27.717 21.0238 27.7329 20.9235C27.7557 20.7804 27.7557 20.6337 27.7329 20.4905C27.717 20.3903 27.645 20.1518 27.0717 19.6702C26.4984 19.1887 25.6425 18.6381 24.375 17.8268C23.1075 17.0157 22.2495 16.4693 21.5867 16.1596ZM0 3.24714C0 3.9359 0.503685 4.49427 1.125 4.49427H16.875C17.4963 4.49427 18 3.9359 18 3.24714C18 2.55837 17.4963 2 16.875 2H1.125C0.503685 2 0 2.55837 0 3.24714ZM22.125 3.24714C22.125 3.9359 22.6287 4.49427 23.25 4.49427H26.625C27.2463 4.49427 27.75 3.9359 27.75 3.24714C27.75 2.55837 27.2463 2 26.625 2H23.25C22.6287 2 22.125 2.55837 22.125 3.24714ZM27.75 9.89852C27.75 10.5873 27.2463 11.1457 26.625 11.1457H10.875C10.2537 11.1457 9.75 10.5873 9.75 9.89852C9.75 9.20976 10.2537 8.65139 10.875 8.65139H26.625C27.2463 8.65139 27.75 9.20976 27.75 9.89852ZM5.625 9.89852C5.625 10.5873 5.12132 11.1457 4.5 11.1457H1.125C0.503685 11.1457 0 10.5873 0 9.89852C0 9.20976 0.503685 8.65139 1.125 8.65139H4.5C5.12132 8.65139 5.625 9.20976 5.625 9.89852Z" fill="white" />
</svg>
