<svg width="50" height="50" viewBox="0 0 50 50" fill="none" xmlns="http://www.w3.org/2000/svg">
<path d="M33.7461 27.0449L33.7416 27.0477L19.8995 35.4944L19.8994 35.4944C18.8389 36.1417 17.5716 36.1358 16.5609 35.6578C15.5534 35.1813 15 34.353 15 33.4462V16.5538C15 15.647 15.5534 14.8187 16.5609 14.3422C17.5716 13.8642 18.8389 13.8583 19.8994 14.5056L19.8995 14.5056L33.7416 22.9523L33.7461 22.9551C34.1613 23.2069 34.4787 23.5329 34.689 23.889C34.8984 24.2438 35 24.6247 35 25C35 25.3753 34.8984 25.7562 34.689 26.111C34.4787 26.4671 34.1613 26.7931 33.7461 27.0449Z" stroke="white" stroke-width="3"/>
</svg>
