<svg width="40" height="40" viewBox="0 0 40 40" fill="none" xmlns="http://www.w3.org/2000/svg">
<path fill-rule="evenodd" clip-rule="evenodd" d="M25.786 20.404C25.2714 20.9001 24.8861 21.5146 24.6637 22.1939C24.4412 22.8732 24.3885 23.5966 24.51 24.301L24.97 26.957L22.565 25.703C21.9272 25.3711 21.219 25.1976 20.5 25.197C19.783 25.197 19.07 25.372 18.435 25.703L16.03 26.957L16.49 24.301C16.6113 23.5966 16.5584 22.8733 16.336 22.1941C16.1136 21.5148 15.7284 20.9003 15.214 20.404L13.269 18.523L15.957 18.135C16.6672 18.034 17.3422 17.7621 17.9242 17.3427C18.5061 16.9232 18.9776 16.3688 19.298 15.727L20.5 13.31L21.703 15.727C22.0232 16.3688 22.4945 16.9232 23.0762 17.3426C23.658 17.7621 24.3329 18.034 25.043 18.135L27.732 18.523L25.786 20.404ZM30.424 19.433C31.552 18.342 30.93 16.441 29.371 16.216L25.408 15.645C25.1037 15.6018 24.8145 15.4853 24.5652 15.3055C24.316 15.1257 24.1141 14.8881 23.977 14.613L22.204 11.051C22.0478 10.7331 21.805 10.4658 21.5035 10.2798C21.2021 10.0939 20.8542 9.99689 20.5 10C20.1456 9.9967 19.7976 10.0936 19.4959 10.2796C19.1942 10.4655 18.9513 10.7329 18.795 11.051L17.024 14.613C16.8867 14.8879 16.6848 15.1255 16.4356 15.3052C16.1863 15.4849 15.8972 15.6015 15.593 15.645L11.63 16.216C10.07 16.441 9.448 18.342 10.576 19.433L13.443 22.206C13.892 22.639 14.096 23.263 13.99 23.875L13.313 27.791C13.102 29.01 14.079 30 15.186 30C15.478 30 15.781 29.931 16.071 29.779L19.615 27.93C19.8884 27.7879 20.1919 27.7138 20.5 27.7138C20.8081 27.7138 21.1116 27.7879 21.385 27.93L24.929 29.779C25.2014 29.9233 25.5048 29.9991 25.813 30C26.921 30 27.898 29.01 27.687 27.791L27.01 23.875C26.9578 23.5734 26.9802 23.2636 27.0754 22.9726C27.1706 22.6817 27.3356 22.4185 27.556 22.206L30.424 19.433Z" fill="white"/>
</svg>
