<svg width="30" height="30" viewBox="0 0 30 30" fill="none" xmlns="http://www.w3.org/2000/svg">
<path fill-rule="evenodd" clip-rule="evenodd" d="M7.72435 12.6123H6.29432C5.50276 12.6123 4.86142 13.2741 4.86142 14.0903V17.0427C4.86142 17.8574 5.50275 18.5189 6.29286 18.5189H7.72289V12.6123H7.72435ZM23.5337 19.0042L24.8959 20.4099V25.0435C24.8959 27.1827 22.761 28.6116 20.8673 27.7406L7.2462 21.4714H4.86288C3.28121 21.4714 2 20.1512 2 18.5189V12.6123C2 10.98 3.2812 9.65985 4.86142 9.65985H7.24766L20.6998 2.34504C22.605 1.3079 24.8959 2.73376 24.8959 4.95682V9.24548L23.5337 10.6508L22.0344 9.10371V6.03418C22.0344 5.48528 21.474 5.12989 20.9973 5.37401L13.4472 9.26981L10.5872 10.746V18.909L13.4472 20.3866L20.9973 24.281C21.474 24.5266 22.0344 24.1712 22.0344 23.6208V20.5513L23.5337 19.0042ZM27.5797 12.7396L25.5574 14.8284L27.5797 16.9154C28.1401 17.4932 28.1401 18.4279 27.5797 19.0042C27.4491 19.1409 27.2922 19.2497 27.1184 19.3241C26.9446 19.3984 26.7576 19.4366 26.5685 19.4366C26.3795 19.4366 26.1925 19.3984 26.0187 19.3241C25.8449 19.2497 25.688 19.1409 25.5574 19.0042L23.5337 16.9154L21.5101 19.0042C21.3793 19.141 21.2221 19.2497 21.0481 19.3241C20.8741 19.3984 20.6868 19.4369 20.4975 19.4369C20.3083 19.4369 20.121 19.3984 19.947 19.3241C19.7729 19.2497 19.6158 19.141 19.485 19.0042C19.2161 18.723 19.066 18.3491 19.066 17.96C19.066 17.5709 19.2161 17.1966 19.485 16.9154L21.5101 14.8284L19.485 12.7396C19.2165 12.4585 19.0666 12.0845 19.0666 11.6957C19.0666 11.307 19.2165 10.9333 19.485 10.6522C19.6158 10.5155 19.7729 10.4053 19.947 10.331C20.121 10.2566 20.3083 10.2181 20.4975 10.2181C20.6868 10.2181 20.8741 10.2566 21.0481 10.331C21.2221 10.4053 21.3793 10.514 21.5101 10.6508L23.5323 12.7396L25.5574 10.6522C25.688 10.5155 25.8449 10.4067 26.0187 10.3324C26.1925 10.258 26.3795 10.2199 26.5685 10.2199C26.7576 10.2199 26.9446 10.258 27.1184 10.3324C27.2922 10.4067 27.4491 10.5155 27.5797 10.6522C27.8488 10.933 27.9991 11.3068 27.9991 11.6957C27.9991 12.0847 27.8488 12.4588 27.5797 12.7396Z" fill="white"/>
</svg>
