<svg viewBox="0 0 41 40" fill="none" xmlns="http://www.w3.org/2000/svg">
<path d="M28.8445 33H27.1524C26.0318 32.9987 24.9574 32.5769 24.165 31.8272C23.3726 31.0775 22.9268 30.061 22.9254 29.0007V10.9999C22.9267 9.93957 23.3724 8.92294 24.1648 8.17308C24.9572 7.42321 26.0316 7.00134 27.1524 7H28.8445C29.9652 7.00133 31.0396 7.4232 31.8321 8.17306C32.6245 8.92293 33.0702 9.93956 33.0714 10.9999V29.0007C33.07 30.061 32.6243 31.0775 31.8318 31.8272C31.0394 32.5769 29.9651 32.9987 28.8445 33ZM27.1524 9.99981C26.8722 10.0001 26.6036 10.1056 26.4055 10.2931C26.2074 10.4806 26.0961 10.7348 26.096 10.9999V29.0007C26.0961 29.2658 26.2075 29.5199 26.4056 29.7073C26.6037 29.8947 26.8723 30.0001 27.1524 30.0003H28.8445C29.1246 30.0001 29.3932 29.8947 29.5913 29.7073C29.7894 29.5199 29.9007 29.2658 29.9009 29.0007V10.9999C29.9007 10.7348 29.7894 10.4806 29.5913 10.2931C29.3933 10.1056 29.1247 10.0001 28.8445 9.99981H27.1524ZM12.9898 33H11.299C10.1783 32.9988 9.10382 32.5771 8.31129 31.8274C7.51876 31.0776 7.07288 30.0611 7.07144 29.0007V10.9999C7.07272 9.93946 7.51854 8.92276 8.31109 8.17288C9.10365 7.42301 10.1782 7.0012 11.2991 7H12.9899C14.1107 7.00122 15.1853 7.42304 15.9778 8.17291C16.7704 8.92278 17.2162 9.93948 17.2174 10.9999V29.0007C17.216 30.0611 16.7701 31.0777 15.9776 31.8274C15.185 32.5771 14.1106 32.9988 12.9898 33ZM11.299 9.99981C11.0187 10.0001 10.7501 10.1056 10.5519 10.2931C10.3537 10.4806 10.2422 10.7348 10.242 10.9999V29.0007C10.2423 29.2658 10.3538 29.52 10.5519 29.7074C10.7501 29.8948 11.0188 30.0001 11.299 30.0003H12.9898C13.27 30.0001 13.5387 29.8948 13.7369 29.7074C13.9351 29.52 14.0466 29.2658 14.0469 29.0007V10.9999C14.0466 10.7348 13.9351 10.4806 13.737 10.2931C13.5388 10.1056 13.2701 10.0001 12.9898 9.99981H11.299Z" fill="white" stroke="white"/>
</svg>
