<svg viewBox="0 0 41 40" fill="none" xmlns="http://www.w3.org/2000/svg">
<path d="M28.9604 22.0449L28.9559 22.0477L15.1138 30.4944L15.1137 30.4944C14.0532 31.1417 12.7859 31.1358 11.7752 30.6578C10.7677 30.1813 10.2143 29.353 10.2143 28.4462V11.5538C10.2143 10.647 10.7677 9.81869 11.7752 9.34223C12.7859 8.86422 14.0532 8.85835 15.1137 9.50559L15.1138 9.50565L28.9559 17.9523L28.9604 17.9551C29.3756 18.2069 29.693 18.5329 29.9033 18.889C30.1127 19.2438 30.2143 19.6247 30.2143 20C30.2143 20.3753 30.1127 20.7562 29.9033 21.111C29.693 21.4671 29.3756 21.7931 28.9604 22.0449Z" stroke="white" stroke-width="3"/>
</svg>
